<?xml version="1.0" encoding="UTF-8"?>
<svg id="Layer_1" xmlns="http://www.w3.org/2000/svg" version="1.1" viewBox="0 0 1920 1080">
  <defs>
    <style>
      .st0 {
        fill: #005bbb;
      }

      .st1 {
        font-family: MuktaMahee-Medium, 'Mukta Mahee', sans-serif;
        font-weight: 500;
      }

      .st1, .st2 {
        font-size: 24px;
      }

      .st2 {
        font-family: MuktaMahee-SemiBold, 'Mukta Mahee', sans-serif;
        font-weight: 600;
      }

      .st3 {
        font-family: MuktaMahee-Bold, 'Mukta Mahee', sans-serif;
        font-size: 39.48px;
        font-weight: 700;
      }

      .st3, .st4 {
        fill: #fff;
      }

      .st5 {
        font-size: 20px;
      }

      .st5, .st6, .st7 {
        font-family: MuktaMahee-Regular, 'Mukta Mahee', sans-serif;
      }

      .st6 {
        font-size: 54px;
      }

      .st7 {
        fill: gray;
        font-size: 30px;
      }

      .st8 {
        fill: #020303;
      }

      .st9 {
        stroke-miterlimit: 10;
      }

      .st9, .st10, .st11 {
        fill: none;
        stroke: #000;
        stroke-width: .8px;
      }

      .st12 {
        opacity: .8;
      }

      .st13 {
        fill: #ffd500;
      }

      .st14 {
        opacity: .07;
      }

      .st15 {
        fill: #fdd400;
      }

      .st16 {
        fill: #245eab;
      }

      .st10, .st11 {
        stroke-linecap: square;
      }

      .st17 {
        fill: #010202;
      }

      .st11 {
        opacity: .3;
      }

      .bar-blue {
        fill: #005bbb;
      }

      .bar-yellow {
        fill: #ffd500;
      }

      .label-dark {
        fill: #020303;
        font-family: MuktaMahee-Medium, 'Mukta Mahee', sans-serif;
        font-weight: 500;
        font-size: 28px;
      }
    </style>
  </defs>

  <!-- Horizontal grid lines -->
  <path class="st11" d="M250,850h1500"/>
  <path class="st11" d="M250,700h1500"/>
  <path class="st11" d="M250,550h1500"/>
  <path class="st11" d="M250,400h1500"/>
  <path class="st11" d="M250,250h1500"/>

  <!-- Y-axis line -->
  <path class="st10" d="M250,850V200"/>

  <!-- X-axis line -->
  <path class="st10" d="M250,850h1500"/>

  <!-- Y-axis labels (0%, 1%, 2%, 3%, 4%) -->
  <text class="st1" transform="translate(210 855)"><tspan x="0" y="0">0%</tspan></text>
  <text class="st1" transform="translate(210 705)"><tspan x="0" y="0">1%</tspan></text>
  <text class="st1" transform="translate(210 555)"><tspan x="0" y="0">2%</tspan></text>
  <text class="st1" transform="translate(210 405)"><tspan x="0" y="0">3%</tspan></text>
  <text class="st1" transform="translate(210 255)"><tspan x="0" y="0">4%</tspan></text>

  <!-- Y-axis title -->
  <text class="st2" transform="translate(80 550) rotate(-90)"><tspan x="0" y="0">SHARE OF TOTAL FLIGHTS</tspan></text>

  <!-- X-axis title -->
  <text class="st2" transform="translate(900 920)"><tspan x="0" y="0">DELAY CATEGORY</tspan></text>

  <!-- X-axis category labels -->
  <text class="st1" transform="translate(500 890)"><tspan x="0" y="0">Delays &gt; 3 hours</tspan></text>
  <text class="st1" transform="translate(1150 890)"><tspan x="0" y="0">Delays &gt; 4 hours</tspan></text>

  <!-- BARS FOR "Delays > 3 hours" -->
  <!-- Before 2025: 2% (bar height = 150px per 1%, so 2% = 300px) -->
  <rect class="bar-blue" x="380" y="550" width="120" height="300" rx="4" ry="4"/>
  <!-- 2025: 4% (4% = 600px) -->
  <rect class="bar-yellow" x="520" y="250" width="120" height="600" rx="4" ry="4"/>

  <!-- BARS FOR "Delays > 4 hours" -->
  <!-- Before 2025: 1% (1% = 150px) -->
  <rect class="bar-blue" x="1050" y="700" width="120" height="150" rx="4" ry="4"/>
  <!-- 2025: 2% (2% = 300px) -->
  <rect class="bar-yellow" x="1190" y="550" width="120" height="300" rx="4" ry="4"/>

  <!-- Bar value labels -->
  <g class="st12">
    <text class="st3" transform="translate(398 520)"><tspan x="0" y="0">2%</tspan></text>
  </g>
  <g class="st12">
    <text class="st3" transform="translate(538 315)"><tspan x="0" y="0">4%</tspan></text>
  </g>
  <g class="st12">
    <text class="st3" transform="translate(1068 670)"><tspan x="0" y="0">1%</tspan></text>
  </g>
  <g class="st12">
    <text class="st3" transform="translate(1208 520)"><tspan x="0" y="0">2%</tspan></text>
  </g>

  <!-- Increase annotations -->
  <text class="label-dark" transform="translate(425 200)"><tspan x="0" y="0">+100%</tspan></text>
  <path d="M440,220 L440,240 L570,240 L570,260" fill="none" stroke="#020303" stroke-width="2" marker-end="url(#arrowhead)"/>

  <text class="label-dark" transform="translate(1095 200)"><tspan x="0" y="0">+100%</tspan></text>

  <!-- Legend -->
  <rect class="bar-blue" x="1550" y="250" width="30" height="30" rx="4" ry="4"/>
  <text class="st1" transform="translate(1590 275)"><tspan x="0" y="0">Before 2025</tspan></text>
  <rect class="bar-yellow" x="1550" y="300" width="30" height="30" rx="4" ry="4"/>
  <text class="st1" transform="translate(1590 325)"><tspan x="0" y="0">2025</tspan></text>

  <!-- Main title -->
  <text class="st6" transform="translate(390 90)"><tspan x="0" y="0">Russia Airline Flight Delays - Share of Delayed Flights</tspan></text>

  <!-- Date stamp -->
  <text class="st7" transform="translate(1671.85 140.01)"><tspan x="0" y="0">Date: 2026-01-26</tspan></text>

  <!-- Tochnyi Logo -->
  <g>
    <g>
      <path d="M151.24,84.81c1.74,0,3.3-.19,4.66-.57,1.36-.38,2.67-.87,3.93-1.47l1.23,4.17c-2.94,1.47-6.41,2.21-10.39,2.21-2.67,0-5.18-.41-7.52-1.23-2.34-.82-4.4-2.06-6.17-3.72-1.77-1.66-3.16-3.73-4.17-6.22-1.01-2.48-1.51-5.38-1.51-8.71,0-3.05.48-5.81,1.43-8.26.95-2.45,2.29-4.54,4.01-6.26s3.75-3.03,6.09-3.93c2.34-.9,4.93-1.35,7.77-1.35,1.69,0,3.34.12,4.95.37,1.61.25,3.39.81,5.36,1.68l-1.31,4.42c-1.42-.76-2.79-1.29-4.13-1.59-1.34-.3-2.71-.45-4.13-.45-4.25,0-7.67,1.34-10.26,4.01-2.59,2.67-3.88,6.38-3.88,11.12,0,3,.41,5.51,1.23,7.52.82,2.02,1.88,3.64,3.19,4.87,1.31,1.23,2.81,2.1,4.5,2.62,1.69.52,3.41.78,5.15.78Z"/>
      <path d="M175.61,88.41h-5.48v-55.37h5.48v22.65c.65-.82,1.47-1.66,2.45-2.54.98-.87,2.1-1.68,3.35-2.41,1.25-.74,2.63-1.35,4.13-1.84,1.5-.49,3.07-.74,4.7-.74,4.2,0,7.47,1.35,9.81,4.05,2.34,2.7,3.52,6.48,3.52,11.33v24.86h-5.32v-24.86c0-3.27-.8-5.85-2.41-7.73-1.61-1.88-3.8-2.82-6.58-2.82s-5.45.7-7.85,2.09c-2.4,1.39-4.33,3.12-5.81,5.19v28.13Z"/>
      <path d="M221.41,88.41h-5.48v-39.5h4.33l1.23,6.87c.65-.82,1.47-1.68,2.45-2.58.98-.9,2.09-1.72,3.31-2.45,1.23-.74,2.58-1.35,4.05-1.84,1.47-.49,3.05-.74,4.74-.74,4.2,0,7.47,1.35,9.81,4.05,2.34,2.7,3.52,6.48,3.52,11.33v24.86h-5.4v-24.86c0-3.27-.79-5.85-2.37-7.73-1.58-1.88-3.76-2.82-6.54-2.82s-5.44.72-7.81,2.17c-2.37,1.45-4.32,3.23-5.85,5.36v27.89Z"/>
      <path d="M256.09,49.97h6.05l9.08,23.8,2.86,8.91h.16l2.7-8.91,8.18-23.8h5.72l-14.8,41.71c-1.58,4.42-3.56,7.89-5.93,10.43-2.37,2.54-5.22,4.43-8.55,5.68l-2.37-4.42c2.67-1.09,4.99-2.59,6.95-4.5,1.96-1.91,3.54-4.66,4.74-8.26l.74-2.21-15.54-38.44Z"/>
      <path d="M301.07,40.07c-1.09,0-2-.35-2.74-1.06-.74-.71-1.1-1.64-1.1-2.78s.37-2.09,1.1-2.82c.74-.74,1.65-1.1,2.74-1.1.98,0,1.87.36,2.66,1.06.79.71,1.19,1.66,1.19,2.86s-.38,2.14-1.14,2.82c-.76.68-1.66,1.02-2.7,1.02ZM298.2,88.41v-38.44h5.72v38.44h-5.72Z"/>
    </g>
    <path d="M82.85,36.8v4.91h-16.96v46.69h-5.9v-46.69h-16.63v-4.91h39.48Z"/>
    <g>
      <path class="st4" d="M103.6,88.21c-.81-.72-1.19-1.56-1.37-2.52-.13-.69-.33-1.37-.45-2.06-.07-.39-.24-.51-.61-.49-1.06.04-2.11-.12-3.13-.36-6.88-1.59-11.81-7.66-11.96-14.74-.1-4.82,1.73-8.81,5.32-12.01,6.75-6.02,17.56-4.69,22.69,2.74,1.79,2.59,2.7,5.45,2.83,8.58.02.51.2.68.67.75.63.09,1.24.28,1.87.39.96.18,1.77.67,2.51,1.39.82-6.91-2.27-15.44-10.11-20.02-7.72-4.51-17.65-3.46-24.15,2.5-6.97,6.4-8.69,16.12-4.77,24.31,3.98,8.32,12.64,12.51,20.67,11.55Z"/>
      <path class="st4" d="M119.4,88.29c.51,0,.93-.07,1.32-.31,1.6-.95,1.81-2.87.43-4.26-1.74-1.77-3.49-3.54-5.27-5.27-.47-.46-.55-.71-.03-1.21,1.31-1.23,2.56-2.54,3.84-3.81.45-.45.63-.94.4-1.55-.24-.63-.81-.76-1.37-.89-5.26-1.2-10.53-2.4-15.79-3.6-1.39-.32-2.13.41-1.81,1.81,1.2,5.31,2.41,10.61,3.61,15.92.13.59.32,1.11.95,1.3.67.2,1.13-.15,1.57-.59,1.29-1.29,2.6-2.56,3.87-3.88.4-.41.59-.36.95.02,1.75,1.79,3.54,3.55,5.31,5.32.57.57,1.2,1.04,2.01.99Z"/>
      <path class="st4" d="M91.18,67.72c-.03,1.49.3,3.03,1.01,4.48,1.54,3.13,4.08,4.99,7.46,5.74.8.18.85.1.68-.66-.32-1.43-.66-2.87-.98-4.3-.09-.41-.28-.68-.65-.91-1.75-1.09-2.71-3.35-2.3-5.31.47-2.22,2.06-3.8,4.23-4.19,2.06-.37,4.13.6,5.33,2.51.16.26.33.42.64.49,1.54.34,3.09.68,4.62,1.08.6.16.59-.03.52-.52-.88-5.64-6.15-9.53-11.89-8.66-4.83.73-8.78,5.26-8.66,10.25Z"/>
      <path class="st8" d="M103.6,88.21c-8.03.96-16.69-3.23-20.67-11.55-3.91-8.18-2.2-17.91,4.77-24.31,6.49-5.96,16.42-7.01,24.15-2.5,7.84,4.58,10.93,13.11,10.11,20.02-.74-.72-1.55-1.21-2.51-1.39-.63-.12-1.24-.3-1.87-.39-.47-.07-.65-.24-.67-.75-.12-3.12-1.04-5.99-2.83-8.58-5.13-7.43-15.95-8.75-22.69-2.74-3.58,3.2-5.41,7.19-5.32,12.01.14,7.08,5.08,13.15,11.96,14.74,1.03.24,2.07.4,3.13.36.38-.01.55.1.61.49.12.69.32,1.37.45,2.06.18.96.56,1.8,1.37,2.52Z"/>
      <path class="st15" d="M121.16,83.72c1.37,1.39,1.16,3.32-.43,4.26-.39.23-.82.31-1.32.31-.82.05-1.44-.42-2.01-.99-1.78-1.77-3.56-3.53-5.31-5.32-.37-.38-.56-.43-.96-.02-1.26,1.32-2.58,2.59-3.87,3.88-.44.44-.9.79-1.57.59-.63-.2-.82-.71-.95-1.3-1.2-5.31-2.41-10.62-3.61-15.92-.32-1.4.42-2.13,1.81-1.81,5.26,1.2,10.53,2.4,15.79,3.6.56.13,1.13.26,1.37.89.23.61.05,1.1-.4,1.55-1.28,1.27-2.52,2.58-3.84,3.81-.53.49-.44.75.03,1.21,1.78,1.73,3.53,3.5,5.27,5.27Z"/>
      <path class="st16" d="M111.72,66.13c.08.49.08.67-.52.52-1.53-.4-3.07-.74-4.62-1.08-.32-.07-.48-.24-.64-.49-1.19-1.91-3.26-2.88-5.33-2.51-2.16.39-3.76,1.97-4.23,4.19-.41,1.96.55,4.22,2.3,5.3.37.23.56.5.65.91.31,1.44.65,2.87.98,4.3.17.76.11.83-.68.66-3.38-.75-5.92-2.6-7.46-5.74-.71-1.44-1.04-2.98-1.01-4.48-.12-4.99,3.83-9.51,8.66-10.25,5.74-.87,11.02,3.02,11.89,8.66Z"/>
    </g>
  </g>

  <!-- Footer attribution -->
  <g>
    <text class="st5" transform="translate(43.7 1044.75)"><tspan x="0" y="0">Analysis by:</tspan></text>
    <text class="st5" transform="translate(170.57 1044.75)"><tspan x="0" y="0">@delfoo</tspan></text>
    <text class="st5" transform="translate(279.81 1044.75)"><tspan x="0" y="0">@delfoo.bsky.social</tspan></text>
    <path d="M258.86,1031.12c2.53,1.9,5.25,5.75,6.24,7.81,1-2.06,3.72-5.91,6.24-7.81,1.82-1.37,4.78-2.43,4.78.94,0,.67-.39,5.66-.61,6.46-.79,2.81-3.65,3.53-6.21,3.1,4.46.76,5.59,3.27,3.14,5.79-4.65,4.77-6.69-1.2-7.21-2.73-.1-.28-.14-.41-.14-.3,0-.11-.05.02-.14.3-.52,1.53-2.56,7.5-7.21,2.73-2.45-2.51-1.32-5.03,3.14-5.79-2.55.43-5.42-.28-6.21-3.1-.23-.81-.61-5.79-.61-6.46,0-3.37,2.96-2.31,4.78-.94h0Z"/>
    <path d="M164.8,1029.82h3.3l-7.24,8.24,8.45,11.17h-6.63l-5.19-6.79-5.95,6.79h-3.3l7.66-8.81-8.09-10.6h6.8l4.69,6.2,5.49-6.2ZM163.64,1047.29h1.83l-11.82-15.62h-1.96l11.96,15.62Z"/>
  </g>

  <!-- Source note -->
  <text class="st5" transform="translate(43.7 1010)"><tspan x="0" y="0">Source: Russia airline delay statistics, 2025</tspan></text>

</svg>
