<?xml version="1.0" encoding="UTF-8"?>
<svg id="Layer_1" xmlns="http://www.w3.org/2000/svg" version="1.1" viewBox="0 0 1920 1080">
  <!-- Generator: Adobe Illustrator 30.0.0, SVG Export Plug-In . SVG Version: 2.1.1 Build 123)  -->
  <defs>
    <style>
      .st0 {
        fill: #005bbb;
      }

      .st1 {
        font-family: MuktaMahee-Medium, 'Mukta Mahee';
        font-weight: 500;
      }

      .st1, .st2 {
        font-size: 24px;
      }

      .st2 {
        font-family: MuktaMahee-SemiBold, 'Mukta Mahee';
        font-weight: 600;
      }

      .st3 {
        font-family: MuktaMahee-Bold, 'Mukta Mahee';
        font-size: 39.48px;
        font-weight: 700;
      }

      .st3, .st4 {
        fill: #fff;
      }

      .st5 {
        font-size: 20px;
      }

      .st5, .st6, .st7 {
        font-family: MuktaMahee-Regular, 'Mukta Mahee';
      }

      .st6 {
        font-size: 64.39px;
      }

      .st7 {
        fill: gray;
        font-size: 30px;
      }

      .st8 {
        fill: #020303;
      }

      .st9 {
        stroke-miterlimit: 10;
      }

      .st9, .st10, .st11 {
        fill: none;
        stroke: #000;
        stroke-width: .8px;
      }

      .st12 {
        opacity: .8;
      }

      .st13 {
        fill: #ffd500;
      }

      .st14 {
        opacity: .07;
      }

      .st15 {
        fill: #fdd400;
      }

      .st16 {
        fill: #245eab;
      }

      .st10, .st11 {
        stroke-linecap: square;
      }

      .st17 {
        fill: #010202;
      }

      .st11 {
        opacity: .3;
      }
    </style>
  </defs>
  <path class="st11" d="M138.29,462.58h1714.88"/>
  <path class="st11" d="M138.29,557.78h1714.88"/>
  <path class="st11" d="M138.29,367.38h1714.88"/>
  <path class="st10" d="M143.58,938.59V164.73"/>
  <path class="st11" d="M138.29,652.98h1714.88"/>
  <path class="st11" d="M138.29,748.19h1714.88"/>
  <path class="st11" d="M138.29,843.39h1714.88"/>
  <path class="st11" d="M138.29,176.98h1714.88"/>
  <text class="st1" transform="translate(110.22 183.49)"><tspan x="0" y="0">40</tspan></text>
  <path class="st11" d="M138.29,272.18h1714.88"/>
  <text class="st1" transform="translate(111.52 564.7)"><tspan x="0" y="0">20</tspan></text>
  <text class="st1" transform="translate(111.33 374.93)"><tspan x="0" y="0">30</tspan></text>
  <text class="st1" transform="translate(113.9 754.56)"><tspan x="0" y="0">10</tspan></text>
  <text class="st1" transform="translate(122.42 946.03)"><tspan x="0" y="0">0</tspan></text>
  <text class="st2" transform="translate(77.76 621.9) rotate(-90)"><tspan x="0" y="0">Y-AXIS TITLE</tspan></text>
  <text class="st2" transform="translate(933.86 1019.78)"><tspan x="0" y="0">X-AXIS TITLE</tspan></text>
  <text class="st1" transform="translate(252.26 967.9)"><tspan x="0" y="0">X-axis range</tspan></text>
  <text class="st1" transform="translate(594.18 967.9)"><tspan x="0" y="0">X-axis range</tspan></text>
  <text class="st1" transform="translate(936.09 967.9)"><tspan x="0" y="0">X-axis range</tspan></text>
  <text class="st1" transform="translate(1278.01 967.9)"><tspan x="0" y="0">X-axis range</tspan></text>
  <text class="st1" transform="translate(1619.93 967.9)"><tspan x="0" y="0">X-axis range</tspan></text>
  <line class="st9" x1="1853.17" y1="938.59" x2="1853.17" y2="949.59"/>
  <line class="st9" x1="485.5" y1="938.59" x2="485.5" y2="949.59"/>
  <line class="st9" x1="143.58" y1="938.59" x2="143.58" y2="949.59"/>
  <line class="st9" x1="827.41" y1="938.59" x2="827.41" y2="949.59"/>
  <line class="st9" x1="1169.33" y1="938.59" x2="1169.33" y2="949.59"/>
  <line class="st9" x1="1511.25" y1="938.59" x2="1511.25" y2="949.59"/>
  <g>
    <g>
      <path d="M151.24,84.81c1.74,0,3.3-.19,4.66-.57,1.36-.38,2.67-.87,3.93-1.47l1.23,4.17c-2.94,1.47-6.41,2.21-10.39,2.21-2.67,0-5.18-.41-7.52-1.23-2.34-.82-4.4-2.06-6.17-3.72-1.77-1.66-3.16-3.73-4.17-6.22-1.01-2.48-1.51-5.38-1.51-8.71,0-3.05.48-5.81,1.43-8.26.95-2.45,2.29-4.54,4.01-6.26s3.75-3.03,6.09-3.93c2.34-.9,4.93-1.35,7.77-1.35,1.69,0,3.34.12,4.95.37,1.61.25,3.39.81,5.36,1.68l-1.31,4.42c-1.42-.76-2.79-1.29-4.13-1.59-1.34-.3-2.71-.45-4.13-.45-4.25,0-7.67,1.34-10.26,4.01-2.59,2.67-3.88,6.38-3.88,11.12,0,3,.41,5.51,1.23,7.52.82,2.02,1.88,3.64,3.19,4.87,1.31,1.23,2.81,2.1,4.5,2.62,1.69.52,3.41.78,5.15.78Z"/>
      <path d="M175.61,88.41h-5.48v-55.37h5.48v22.65c.65-.82,1.47-1.66,2.45-2.54.98-.87,2.1-1.68,3.35-2.41,1.25-.74,2.63-1.35,4.13-1.84,1.5-.49,3.07-.74,4.7-.74,4.2,0,7.47,1.35,9.81,4.05,2.34,2.7,3.52,6.48,3.52,11.33v24.86h-5.32v-24.86c0-3.27-.8-5.85-2.41-7.73-1.61-1.88-3.8-2.82-6.58-2.82s-5.45.7-7.85,2.09c-2.4,1.39-4.33,3.12-5.81,5.19v28.13Z"/>
      <path d="M221.41,88.41h-5.48v-39.5h4.33l1.23,6.87c.65-.82,1.47-1.68,2.45-2.58.98-.9,2.09-1.72,3.31-2.45,1.23-.74,2.58-1.35,4.05-1.84,1.47-.49,3.05-.74,4.74-.74,4.2,0,7.47,1.35,9.81,4.05,2.34,2.7,3.52,6.48,3.52,11.33v24.86h-5.4v-24.86c0-3.27-.79-5.85-2.37-7.73-1.58-1.88-3.76-2.82-6.54-2.82s-5.44.72-7.81,2.17c-2.37,1.45-4.32,3.23-5.85,5.36v27.89Z"/>
      <path d="M256.09,49.97h6.05l9.08,23.8,2.86,8.91h.16l2.7-8.91,8.18-23.8h5.72l-14.8,41.71c-1.58,4.42-3.56,7.89-5.93,10.43-2.37,2.54-5.22,4.43-8.55,5.68l-2.37-4.42c2.67-1.09,4.99-2.59,6.95-4.5,1.96-1.91,3.54-4.66,4.74-8.26l.74-2.21-15.54-38.44Z"/>
      <path d="M301.07,40.07c-1.09,0-2-.35-2.74-1.06-.74-.71-1.1-1.64-1.1-2.78s.37-2.09,1.1-2.82c.74-.74,1.65-1.1,2.74-1.1.98,0,1.87.36,2.66,1.06.79.71,1.19,1.66,1.19,2.86s-.38,2.14-1.14,2.82c-.76.68-1.66,1.02-2.7,1.02ZM298.2,88.41v-38.44h5.72v38.44h-5.72Z"/>
    </g>
    <path d="M82.85,36.8v4.91h-16.96v46.69h-5.9v-46.69h-16.63v-4.91h39.48Z"/>
    <g>
      <path class="st4" d="M103.6,88.21c-.81-.72-1.19-1.56-1.37-2.52-.13-.69-.33-1.37-.45-2.06-.07-.39-.24-.51-.61-.49-1.06.04-2.11-.12-3.13-.36-6.88-1.59-11.81-7.66-11.96-14.74-.1-4.82,1.73-8.81,5.32-12.01,6.75-6.02,17.56-4.69,22.69,2.74,1.79,2.59,2.7,5.45,2.83,8.58.02.51.2.68.67.75.63.09,1.24.28,1.87.39.96.18,1.77.67,2.51,1.39.82-6.91-2.27-15.44-10.11-20.02-7.72-4.51-17.65-3.46-24.15,2.5-6.97,6.4-8.69,16.12-4.77,24.31,3.98,8.32,12.64,12.51,20.67,11.55Z"/>
      <path class="st4" d="M119.4,88.29c.51,0,.93-.07,1.32-.31,1.6-.95,1.81-2.87.43-4.26-1.74-1.77-3.49-3.54-5.27-5.27-.47-.46-.55-.71-.03-1.21,1.31-1.23,2.56-2.54,3.84-3.81.45-.45.63-.94.4-1.55-.24-.63-.81-.76-1.37-.89-5.26-1.2-10.53-2.4-15.79-3.6-1.39-.32-2.13.41-1.81,1.81,1.2,5.31,2.41,10.61,3.61,15.92.13.59.32,1.11.95,1.3.67.2,1.13-.15,1.57-.59,1.29-1.29,2.6-2.56,3.87-3.88.4-.41.59-.36.95.02,1.75,1.79,3.54,3.55,5.31,5.32.57.57,1.2,1.04,2.01.99Z"/>
      <path class="st4" d="M91.18,67.72c-.03,1.49.3,3.03,1.01,4.48,1.54,3.13,4.08,4.99,7.46,5.74.8.18.85.1.68-.66-.32-1.43-.66-2.87-.98-4.3-.09-.41-.28-.68-.65-.91-1.75-1.09-2.71-3.35-2.3-5.31.47-2.22,2.06-3.8,4.23-4.19,2.06-.37,4.13.6,5.33,2.51.16.26.33.42.64.49,1.54.34,3.09.68,4.62,1.08.6.16.59-.03.52-.52-.88-5.64-6.15-9.53-11.89-8.66-4.83.73-8.78,5.26-8.66,10.25Z"/>
      <path class="st8" d="M103.6,88.21c-8.03.96-16.69-3.23-20.67-11.55-3.91-8.18-2.2-17.91,4.77-24.31,6.49-5.96,16.42-7.01,24.15-2.5,7.84,4.58,10.93,13.11,10.11,20.02-.74-.72-1.55-1.21-2.51-1.39-.63-.12-1.24-.3-1.87-.39-.47-.07-.65-.24-.67-.75-.12-3.12-1.04-5.99-2.83-8.58-5.13-7.43-15.95-8.75-22.69-2.74-3.58,3.2-5.41,7.19-5.32,12.01.14,7.08,5.08,13.15,11.96,14.74,1.03.24,2.07.4,3.13.36.38-.01.55.1.61.49.12.69.32,1.37.45,2.06.18.96.56,1.8,1.37,2.52Z"/>
      <path class="st15" d="M121.16,83.72c1.37,1.39,1.16,3.32-.43,4.26-.39.23-.82.31-1.32.31-.82.05-1.44-.42-2.01-.99-1.78-1.77-3.56-3.53-5.31-5.32-.37-.38-.56-.43-.96-.02-1.26,1.32-2.58,2.59-3.87,3.88-.44.44-.9.79-1.57.59-.63-.2-.82-.71-.95-1.3-1.2-5.31-2.41-10.62-3.61-15.92-.32-1.4.42-2.13,1.81-1.81,5.26,1.2,10.53,2.4,15.79,3.6.56.13,1.13.26,1.37.89.23.61.05,1.1-.4,1.55-1.28,1.27-2.52,2.58-3.84,3.81-.53.49-.44.75.03,1.21,1.78,1.73,3.53,3.5,5.27,5.27Z"/>
      <path class="st16" d="M111.72,66.13c.08.49.08.67-.52.52-1.53-.4-3.07-.74-4.62-1.08-.32-.07-.48-.24-.64-.49-1.19-1.91-3.26-2.88-5.33-2.51-2.16.39-3.76,1.97-4.23,4.19-.41,1.96.55,4.22,2.3,5.3.37.23.56.5.65.91.31,1.44.65,2.87.98,4.3.17.76.11.83-.68.66-3.38-.75-5.92-2.6-7.46-5.74-.71-1.44-1.04-2.98-1.01-4.48-.12-4.99,3.83-9.51,8.66-10.25,5.74-.87,11.02,3.02,11.89,8.66Z"/>
    </g>
  </g>
  <g>
    <text class="st5" transform="translate(43.7 1044.75)"><tspan x="0" y="0">Analysis by:</tspan></text>
    <text class="st5" transform="translate(170.57 1044.75)"><tspan x="0" y="0">@delfoo</tspan></text>
    <text class="st5" transform="translate(279.81 1044.75)"><tspan x="0" y="0">@delfoo.bsky.social</tspan></text>
    <path d="M258.86,1031.12c2.53,1.9,5.25,5.75,6.24,7.81,1-2.06,3.72-5.91,6.24-7.81,1.82-1.37,4.78-2.43,4.78.94,0,.67-.39,5.66-.61,6.46-.79,2.81-3.65,3.53-6.21,3.1,4.46.76,5.59,3.27,3.14,5.79-4.65,4.77-6.69-1.2-7.21-2.73-.1-.28-.14-.41-.14-.3,0-.11-.05.02-.14.3-.52,1.53-2.56,7.5-7.21,2.73-2.45-2.51-1.32-5.03,3.14-5.79-2.55.43-5.42-.28-6.21-3.1-.23-.81-.61-5.79-.61-6.46,0-3.37,2.96-2.31,4.78-.94h0Z"/>
    <path d="M164.8,1029.82h3.3l-7.24,8.24,8.45,11.17h-6.63l-5.19-6.79-5.95,6.79h-3.3l7.66-8.81-8.09-10.6h6.8l4.69,6.2,5.49-6.2ZM163.64,1047.29h1.83l-11.82-15.62h-1.96l11.96,15.62Z"/>
  </g>
  <path class="st10" d="M137.87,938.59h1715.3"/>
  <g class="st12">
    <text class="st3" transform="translate(266.86 790.55)"><tspan x="0" y="0">0.10%</tspan></text>
  </g>
  <g class="st12">
    <text class="st3" transform="translate(606.03 904.39)"><tspan x="0" y="0">0.04%</tspan></text>
  </g>
  <g class="st12">
    <text class="st3" transform="translate(947.59 828.02)"><tspan x="0" y="0">0.08%</tspan></text>
  </g>
  <g class="st12">
    <text class="st3" transform="translate(1294.47 732.93)"><tspan x="0" y="0">0.13%</tspan></text>
  </g>
  <g class="st12">
    <text class="st3" transform="translate(1633.64 258.07)"><tspan x="0" y="0">0.23%</tspan></text>
  </g>
  <text class="st6" transform="translate(858.96 89.67)"><tspan x="0" y="0">Russian OFZ Treasury Bonds - Q4 2025</tspan></text>
  <text class="st7" transform="translate(1671.85 140.01)"><tspan x="0" y="0">Date: 2026-01-14</tspan></text>
  <g class="st14">
    <path class="st17" d="M1012.02,1042.85c-196.88,23.53-409.36-79.19-506.94-283.32-95.92-200.66-53.94-439.17,117.07-596.06C781.4,17.36,1024.84-8.37,1214.26,102.25c192.37,112.34,268.09,321.53,247.92,491.02-18.23-17.67-37.91-29.73-61.57-34.16-15.34-2.87-30.41-7.36-45.82-9.65-11.49-1.71-15.88-5.82-16.37-18.31-3.01-76.59-25.44-146.78-69.33-210.32-125.88-182.29-391.07-214.68-556.5-67.15-87.87,78.36-132.72,176.39-130.34,294.51,3.5,173.67,124.52,322.36,293.23,361.45,25.22,5.85,50.84,9.84,76.87,8.81,9.22-.37,13.4,2.5,15.02,12.1,2.86,16.96,7.86,33.55,11.01,50.48,4.37,23.52,13.84,44.11,33.65,61.84Z"/>
    <path class="st13" d="M1442.56,932.89c33.66,34.21,28.47,81.37-10.66,104.57-9.65,5.7-19.99,7.71-32.36,7.52-19.99,1.26-35.31-10.3-49.37-24.36-43.54-43.41-87.33-86.59-130.32-130.54-9.01-9.2-13.7-10.66-23.42-.49-30.94,32.36-63.2,63.43-94.81,95.11-10.69,10.72-22.09,19.47-38.42,14.45-15.55-4.76-20.12-17.52-23.36-31.94-29.38-130.22-59.12-260.34-88.56-390.53-7.81-34.37,10.2-52.12,44.35-44.35,129.09,29.45,258.17,58.86,387.26,88.37,13.77,3.14,27.7,6.41,33.56,21.83,5.67,14.97,1.3,27.08-9.75,38.03-31.42,31.1-61.87,63.26-94.1,93.49-12.92,12.12-10.88,18.4.65,29.64,43.7,42.47,86.59,85.78,129.31,129.22Z"/>
    <path class="st0" d="M1211.3,501.44c1.88,11.99,1.98,16.52-12.63,12.73-37.51-9.78-75.38-18.14-113.25-26.47-7.74-1.72-11.86-5.8-15.78-12.12-29.25-46.91-79.98-70.68-130.61-61.61-53.03,9.49-92.22,48.33-103.63,102.65-10.11,48.07,13.38,103.43,56.33,130.09,9.13,5.67,13.73,12.37,15.94,22.42,7.74,35.24,16,70.36,23.97,105.57,4.21,18.63,2.79,20.38-16.71,16.07-82.86-18.3-145.12-63.78-182.86-140.65-17.36-35.41-25.43-73.11-24.68-109.75-3.01-122.38,93.88-233.33,212.31-251.24,140.88-21.35,270.09,74.12,291.6,212.31Z"/>
  </g>
</svg>