<?xml version="1.0" encoding="UTF-8"?>
<svg id="Layer_2" data-name="Layer 2" xmlns="http://www.w3.org/2000/svg" viewBox="0 0 241.54 241.93">
  <defs>
    <style>
      .cls-1 {
        fill: #005bbb;
      }

      .cls-2 {
        fill: #010202;
        opacity: .05;
      }

      .cls-3 {
        fill: #ffd500;
      }

      .cls-4 {
        opacity: .08;
      }
    </style>
  </defs>
  <g id="Layer_1-2" data-name="Layer 1">
    <g>
      <path class="cls-2" d="M133.2,241.14c-47.05,5.62-97.83-18.92-121.15-67.71C-10.87,125.47-.84,68.47,40.03,30.98,78.09-3.94,136.26-10.09,181.53,16.35c45.97,26.85,64.07,76.84,59.25,117.35-4.36-4.22-9.06-7.11-14.71-8.16-3.67-.69-7.27-1.76-10.95-2.31-2.75-.41-3.79-1.39-3.91-4.38-.72-18.3-6.08-35.08-16.57-50.26-30.08-43.56-93.46-51.31-133-16.05-21,18.73-31.72,42.15-31.15,70.38.84,41.5,29.76,77.04,70.08,86.38,6.03,1.4,12.15,2.35,18.37,2.1,2.2-.09,3.2.6,3.59,2.89.68,4.05,1.88,8.02,2.63,12.06,1.05,5.62,3.31,10.54,8.04,14.78Z"/>
      <g class="cls-4">
        <path class="cls-3" d="M236.09,214.86c8.04,8.18,6.8,19.44-2.55,24.98-2.31,1.37-4.78,1.84-7.73,1.8-4.78.31-8.44-2.46-11.8-5.81-10.4-10.37-20.87-20.69-31.14-31.2-2.15-2.2-3.27-2.55-5.6-.12-7.39,7.73-15.1,15.15-22.66,22.73-2.55,2.56-5.28,4.64-9.18,3.45-3.72-1.15-4.81-4.2-5.58-7.64-7.02-31.11-14.13-62.21-21.17-93.32-1.87-8.22,2.44-12.46,10.6-10.6,30.85,7.04,61.7,14.07,92.55,21.12,3.29.75,6.62,1.53,8.02,5.22,1.35,3.57.31,6.46-2.33,9.08-7.51,7.44-14.79,15.12-22.49,22.35-3.09,2.9-2.6,4.4.15,7.08,10.44,10.15,20.69,20.51,30.9,30.89Z"/>
      </g>
      <g class="cls-4">
        <path class="cls-1" d="M180.83,111.75c.45,2.86.47,3.95-3.02,3.04-8.96-2.34-18.01-4.34-27.06-6.32-1.85-.41-2.83-1.39-3.77-2.9-6.99-11.22-19.11-16.9-31.21-14.73-12.67,2.27-22.04,11.55-24.77,24.54-2.42,11.49,3.2,24.72,13.46,31.09,2.18,1.35,3.28,2.96,3.81,5.36,1.85,8.42,3.82,16.81,5.73,25.22,1.01,4.46.67,4.88-3.99,3.85-19.8-4.37-34.68-15.24-43.7-33.62-4.15-8.45-6.08-17.46-5.9-26.23-.72-29.24,22.43-55.75,50.74-60.04,33.67-5.09,64.55,17.72,69.69,50.75Z"/>
      </g>
    </g>
  </g>
</svg>